<?xml version="1.0" encoding="utf-8"?>
<!-- Generator: Adobe Illustrator 26.3.1, SVG Export Plug-In . SVG Version: 6.00 Build 0)  -->
<svg version="1.1"
	 id="svg23" xmlns:svg="http://www.w3.org/2000/svg" xmlns:inkscape="http://www.inkscape.org/namespaces/inkscape" xmlns:sodipodi="http://sodipodi.sourceforge.net/DTD/sodipodi-0.dtd"
	 xmlns="http://www.w3.org/2000/svg" xmlns:xlink="http://www.w3.org/1999/xlink" x="0px" y="0px" viewBox="0 0 308.8 304.9"
	 style="enable-background:new 0 0 308.8 304.9;" xml:space="preserve">
<style type="text/css">
	.st0{fill:#FFFFFF;}
</style>
<sodipodi:namedview  bordercolor="#000000" borderopacity="0.25" id="namedview25" inkscape:deskcolor="#d1d1d1" inkscape:pagecheckerboard="0" inkscape:pageopacity="0.0" inkscape:showpageshadow="2" pagecolor="#ffffff">
	</sodipodi:namedview>
<g>
	<g id="SvgjsG2685" transform="matrix(0.9820592540669653,0,0,0.9820592540669653,-0.054560523427421584,0)">
		<g id="g17">
			<path id="path3" class="st0" d="M61.5,40.8h1.5l-1.2-0.6L61.5,40.8z M65.2,39.1c0,0.3,0,0.3,0.3,0.3l1.2-0.9
				C66.1,38.2,65.8,38.2,65.2,39.1z M53.9,46.9l0.9-0.6c0.3-0.3,0.3-0.6,0.3-0.6h-0.6L53.9,46.9C53.6,46.6,53.6,46.9,53.9,46.9z
				 M60.3,38.5H60l-0.6,0.6h0.9L60.3,38.5z M54.2,45.5l1.7-1.5c0.3-0.3,0.3-0.6,0.3-0.9h-0.9l-3.5,3.2l-0.6,1.2l2-1.7L54.2,45.5z"/>
			<path id="path5" class="st0" d="M32,69.1v-0.6c0.2-1.3,1-2.4,2-3.2l2.6-1.7l1.5-1.7l2-2l1.2-1.2l1.2-0.9c1-0.6,1.9-1.5,2.3-2.6
				l1.2-1.5c1.1-1.1,2.1-2.4,2.9-3.8l0.6-0.9l0.9-0.6l-0.6-0.9l1.2-1.5c2.3-1.7,4.1-4.1,6.4-5.8l0.9-0.9c0.3-0.7,0.8-1.3,1.5-1.7
				l2.3-1.2h1.2c0.9-0.3,1.6-1,2-1.7v-0.6c0.9-1.7,2.2-3.1,3.8-4.1l2.3-1.5l0.6-0.6l1.2-1.2l2.9-1.5h0.6l-3.2,1.2l-4.1,2.9
				c-1.7,1.5-4.1,1.7-5.2,4.1H65c-2,0.6-4.1,1.5-5,3.5s-2.3,1.7-3.5,2.6c-0.5,0.1-0.9,0.6-0.9,1.2c-2.3-0.3-3.2,1.5-4.4,2.6v2.3
				c-1.9,0.9-3.5,2.3-4.7,4.1c-4.7,0.3-4.7,6.1-8.7,7.3h-0.3c-0.1,0.2-0.1,0.4,0,0.6c-0.9,0-1.5,0.6-1.2,1.5l-0.6,1.5
				c-2,1.2-1.7,3.2-2.9,5c-2.3,1.5-3.2,4.4-5,6.4l0.9,1.5l0.6-0.6C30.2,71.5,31.1,70.3,32,69.1z M160.8,5.9l1.7,0.6h0.6
				c1.3,0.6,2.7,0.8,4.1,0.6c1.8-0.3,3.7-0.2,5.5,0.3h3.5c1.2-0.3,2.5,0.1,3.5,0.9c0.1,0.1,0.1,0.2,0,0.3h-1.2
				c-0.1,0.1-0.1,0.2,0,0.3h2c1.2-0.5,2.6-0.5,3.8,0c0.6,0,0.3,0.3,0.6,0.6l1.5,0.6h-0.6c-0.6-1.2-1.5-1.2-2.3-1.2
				c-3.9-1.8-8.2-2.7-12.5-2.6h-2.3c-3.4-1-6.9-1.4-10.5-1.2h0.6L160.8,5.9z M182,14.9h0.6H182z M203.9,16.4c0.8,0.8,1.9,1,2.9,0.6
				h1.7c-1.5-1.2-3.3-1.9-5.2-2l-2-0.6l1.5,0.9L203.9,16.4z M194,12.6c0,0.3,0.3,0.6,0.6,0.9h0.6l1.5-0.9c-1.5-0.9-3.2-1.5-5-1.7
				l2,1.2L194,12.6z M215.5,20.4l2.3,1.5C217.3,21,216.7,20.4,215.5,20.4z"/>
			<path id="path7" class="st0" d="M292.1,217.9l1.7-4.7l1.7-4.4c0.6-1.5,1.7-5.2,2.3-7.6c0.1-0.7,0.4-1.4,0.9-2h0.3v-3.2
				c1.5-0.3,1.2-1.7,1.5-2.6l2.3-13.7c1.5-5.9,1.5-12.1,0-18.1c0.3-1.7-0.3-3.4-1.5-4.7v-12.5c-0.9-2.6,0.9-5.5-1.2-7.9l-2.3-9.3
				c0-0.2,0-0.4,0-0.6l-0.6-1.7c-0.2-0.4-0.2-0.8,0-1.2h0.3c0.9,0,0.9-1.5,0.9-2.6c-0.2-1.1-0.6-2.2-1.2-3.2l-0.9-1.2
				c-0.4-0.6-0.6-1.3-0.6-2c0.1-2-0.1-3.9-0.6-5.8v-1.7c-0.6-2-1.2-4.4-1.7-6.4l-0.6-1.5c-0.6-1-1-2.1-1.2-3.2
				c-0.2-0.8-0.5-1.6-0.9-2.3l-1.7-2.9c-0.5-0.4-1.1-0.6-1.7-0.6h-0.3v-0.9h-0.6v-2.3h-0.3v-0.6c0-0.1,0-0.2,0-0.3v-0.6
				c0.3-0.6,0.3-0.9-0.3-1.5c-0.5-0.5-0.9-1.1-1.2-1.7l-0.6-1.7c-0.4-1.3-1.1-2.5-2-3.5c-0.6-0.6-1.1-1.3-1.5-2l-2-4.7
				c-0.4-1-1-2-1.7-2.9l-1.7-2.3c-0.5-0.7-0.9-1.5-1.2-2.3l-0.6-0.9c-0.3-0.4-0.4-1-0.3-1.5c0-0.5-0.2-0.9-0.6-1.2l-1.2-0.9v0.6
				c0.3,0.6,0,0.9-0.3,0.9h-0.6l0.9,2.9l0.9,1.5l2,2.6h-0.3l-0.6-0.6l-0.6-0.6c-0.3-1.8-1.7-3.1-3.5-3.2v-2
				c-0.9-3.5-4.7-3.8-6.4-6.1c-0.6-1.4-1.8-2.3-3.2-2.6l-2.3-2.6c-2.4-3.5-5.5-6.4-9-8.7l-2.3-1.7l-1.2-0.9c-2-2-2.9-5.2-6.4-5.2
				l-2.3-1.5l-2.6-2c-0.9-2.1-2.9-3.6-5.2-3.8c-1.9-1.7-4.2-2.9-6.7-3.5l0.6,0.6l1.5,1.2l3.8,2c2.3,1.2,4.3,2.8,6.1,4.7
				c1.3,1.3,2.8,2.3,4.4,3.2l1.7,1.5c0.3,0.3,0.6,0.6,0.3,0.9h-0.3l-2.6-0.9c-2.1-0.4-4.1-1.2-5.8-2.3l-3.5-1.7l-3.8-2h-0.6
				c-0.9-0.3-1.2-1.2-2.3-1.5l-2.3-0.6l-7.3-1.5c-1-0.5-1.9-1.2-2.6-2c-0.9,0-1.8-0.3-2.6-0.9l-2.9-1.2c-2.8-0.6-5.5-1.3-8.2-2.3
				l-1.7-0.6l-2.9-0.9H189l-0.6-0.9v-0.3h-4.7l-1.7-1.5l-1.2,0.6l-1.2,0.6h-0.6l-2.6-1.5c-1.7,1.7-3.2-0.6-4.7-0.3l-2.9-0.9
				c-1.1,0.6-2.4,0.6-3.5,0h-3.5c-0.9-0.1-1.5-0.9-1.5-1.7l0.9-0.6h1.7c0.2,0.3,0.3,0.6,0.3,0.9c0,0.6,0.6,0.6,1.5,0.6h0.6l-1.2-1.7
				c-0.8-0.7-1.9-0.9-2.9-0.6l-2.9,0.9h-0.3c0.9,0.6,0.6,0.9,0.6,1.5h-4.7l-1.2-0.6l-2.3-1.2h-0.3l-2-0.6h-6.7l1.2-0.6l2.3-0.6h0.9
				l5-0.9l3.2-0.6l1.7-0.6h-3.2c-3.3-0.7-6.6-0.7-9.9,0h-3.8L129,6.7c-4.1,0.3-8.2,0-11.4,3.5c-7.3-1.2-13.7,2-20.1,5.2l-6.4,2.6
				c-4.1,0.6-7.8,2.4-10.8,5.2h0.9l1.5-0.9l2.3-1.5l3.8-1.7l2.9-0.6c1.8-1.2,3.7-2.1,5.8-2.6l2.6-0.9h0.6c0.3,0.6,1.5,0,2,0h0.6
				c0.3,0,0.3,0.3,0,0.3l-1.7,1.2l2.9-0.9l2.3-0.6l-3.8,2l-3.8,1.2c-0.8,0.2-1.4,0.8-1.7,1.5l-0.9,1.5h0.9l1.2-0.6
				c0.6-0.9,1.5-1.5,2.6-1.7l4.4-1.5h1.5c0.2-0.1,0.4,0,0.4,0.1c0.1,0.2,0,0.4-0.1,0.4l0,0c-0.6,0.6-1.7,0.9-2.3,1.5h0.6l-9.3,2.6
				l-11.1,4.7c-1.9,1.7-4.2,2.9-6.7,3.5c-1.5,1.3-3.1,2.4-5,3.2l-2.3,0.6c-0.7,1.5-2.1,2.5-3.8,2.6l-0.9,1.5
				c-0.9,1.3-2.1,2.4-3.5,3.2h-0.3v-0.3l-0.6,0.6l-0.6,0.6l-2.9,0.6h-1.5l-1.2,1.5c-0.3,0.3-0.3,0.6,0,0.6h0.3
				c-1.7,1.7-2.9,4.1-5.2,5l-3.8,4.4c-1.7,3.5-5.2,4.7-7.6,7.6c-2.3,2.9-4.1,11.4-11.4,12.5L28,73.4l-0.6,1.5
				c-0.3,0.8-0.6,1.6-1.2,2.3c-1.3,2-2.5,4-3.5,6.1c-0.3,0.4-0.4,1-0.3,1.5c0,0.8-0.2,1.6-0.6,2.3l-1.5,3.2H21
				c0.9,0,0.9,0.9,1.2,1.7l2.3-3.2c0.4-0.8,1-1.5,1.7-2c1.1-0.6,2.1-1.5,2.6-2.6l0.9-0.9l1.2-1.2l1.7-3.2h0.6c0.3,0.3,0.3,0.3,0.6,0
				l0.6-1.2h1.5v2.3l1.5-1.5c0.3-0.5,0.3-1,0-1.5c0-0.3,0.1-0.6,0.3-0.9c0.4-0.4,0.7-0.9,0.9-1.5c0.3-1.2,1.2-2.2,2.3-2.6l0.9-0.6
				l0.9-0.9c1-0.7,1.8-1.7,2.3-2.9L44.3,67c0-0.3,0.3-0.9,0.6-1.2h1.5l1.7-2.3l1.7-0.9h0.6c-6,6.5-11.3,13.5-16,21h-0.3h0.3
				c-6.5,10.2-11.7,21.1-15.4,32.6h-1.5l-1.5-1.2c-0.6-0.6-0.3-2-1.2-2.6h0.3c0.9-1.5-0.3-3.5,0.9-5c1.2-1.5,0.3-4.1-2.6-3.5
				s-4.4,1.5-3.8,4.4c0.6,2.9-2.9,5.2-3.2,8.4c-0.3,3.2-1.5,1.5-0.9,2.6v11.4c0.3,2.3-1.5,5.2,2.3,6.1l3.8,2.6
				c0.3,1.5-1.5,4.7,2.6,3.8c-0.5,4.8-0.8,9.7-0.9,14.6c0,3.2,0.3,6.4,0.3,9.6v-1.2c-0.3-1.2-0.3-2.3-0.6-3.8l-0.9,0.9v-0.6h-1.5
				c0,1.5-0.3,2.3-1.2,2.6c-0.2,0.4-0.3,1-0.3,1.5c0,0.3,0.3,0.9,0.6,0.6c0.3-0.3,1.2,0.6,2,1.2c0.9,0.6-0.6,0.9-1.2,0.6
				c-0.6-0.3-0.6,0.3-0.6,0.9v0.9l1.5,4.4c0,0.9-0.3,1.7-0.3,2.6c0,0.8,0.2,1.6,0.6,2.3h-0.9v-0.9l-2-0.6v-1.7c0.1-0.5,0.1-1,0-1.5
				c-0.4-1.7-0.7-3.5-0.9-5.2c-0.6-3.4-0.7-6.8-0.6-10.2c0-0.5,0.1-1,0.3-1.5v0.6c0.1,0.5,0.2,1,0.3,1.5c0,0.4,0.1,0.8,0.3,1.2
				c0.3,0.6,0.6,1.2,1.2,1.2c0.6,0,0.3-0.3,0.3-0.6c0-0.5-0.1-1-0.3-1.5c-0.5-1.2-0.8-2.5-0.9-3.8c-0.1-0.7-0.4-1.4-0.9-2
				c-0.4-0.8-0.6-1.7-0.6-2.6v-2.3c0-0.9,0.3-1.7,0.3-2.6c0.1-0.4,0-0.8-0.3-1.2H7c-2.3,1.2-2,0.6-2.9,4.7v5.2c0,2-0.3,4.1,0,6.1
				c0,2.2,0.1,4.5,0.6,6.7c0.1,0.5,0.1,1,0,1.5c0,0.9,0.1,1.8,0.3,2.6c0.2,1.2,0.3,2.5,0.3,3.8c-0.2,1.7,0,3.4,0.6,5
				c0.1,0.4,0.1,0.8,0,1.2c-0.1,0.8,0,1.6,0.3,2.3c0.3,0.9,0.5,1.7,0.6,2.6c0.3,2.2,0.8,4.3,1.5,6.4c0.3,0.9,0.5,1.9,0.6,2.9
				c0.1,0.7,0.4,1.4,0.9,2c0.7,1,1.2,2.2,1.5,3.5c0.2,1,0.5,2,0.9,2.9l1.2,4.1c0.4,1.5,0.9,3,1.7,4.4c1,1.9,1.8,4,2.3,6.1l0.6,1.5
				c0.7,0.8,1.2,1.8,1.5,2.9c0.2,0.9,0.6,1.6,1.2,2.3c0.3,0.4,0.5,0.9,0.6,1.5c0.3,0.9,0.6,1.2,1.2,0.9h0.3v2.6l1.5,2.9l1.5,2.9
				l3.2,3.5l1.2,1.2c0.9,0.9,2,1.5,2.6,2.9l1.2,0.9c0.5,0.3,0.8,0.9,0.9,1.5l0.6,2c0.4,1,1,1.8,1.7,2.6l1.2,0.6h0.9
				c0.3,0.1,0.5,0.4,0.4,0.7c0,0,0,0.1-0.1,0.1c0,0.5,0,1,0,1.5c0.2,0.6,0.6,1.1,1.2,1.5h0.6c1.2-0.3,2.3,0.6,3.5,2h0.3
				c0-0.3,0.3-0.3,0-0.6v-0.6c0-0.3,0.3-0.6,0.6-0.3c0.6,0.4,0.9,1.1,0.9,1.7v0.6c0.2,1.2,0.6,2.4,1.2,3.5c1.5,0.9,1.5,0.9,1.5,0.3
				c0-0.6,0-0.6,0.6-0.6h1.2l0.6,0.9l2.3,1.5c2,2.3,5.2,2,7.6,3.5l5,5h0.6c0.9,2.1,2.5,3.8,4.7,4.7c0.6,1,1.7,1.7,2.9,1.7
				c0,1.5,1.7,1.7,3.2,2c0.6,0.7,1.4,1.1,2.3,1.2h0.6c1.1,1.2,2.8,1.7,4.4,1.5l2.6,2.3l7,2.6v0.6c1.5,3.2,5,2,7.3,2.9l3.2,1.2h1.2
				c3.5,0.9,7,2.6,10.8,1.5c-0.1,0.4-0.1,0.8,0,1.2c3.2,2,7,0,10.5,1.2c1.6,0.6,3.3,0.7,5,0.3h0.3l2.3,0.6h0.9l2.6,0.6h0.9
				c0.5-0.3,1-0.3,1.5,0c1.4,0.5,2.9,0.9,4.4,1.2h1.7c0.6-0.4,1.4-0.4,2,0h11.4c1.6,0.2,3.1,0.1,4.7-0.3h2.9l1.5-0.6h9.6l1.7-0.6
				l1.5-0.9h6.4v1.7h-3.8l-3.5,0.6c-1.2,0.3-2,0-2.9,0.3c-0.9,0.4-1.9,0.6-2.9,0.6l-3.8,0.9h-1.2c-1.5-0.3-3-0.2-4.4,0.3h-5.2
				c-0.8,0.4-1.8,0.4-2.6,0h-13.1c-1.1-0.2-2.3,0.1-3.2,0.9h-0.9l-0.9-0.6v-0.9h-3.5c-1.2-0.5-2.5-0.8-3.8-0.9h-7.3l-2-0.6l-1.5-0.6
				l-6.1-1.2h-1.5l-1.5-0.6l-6.1-2l-4.1-1.2h-6.4c-0.3,0-0.3,0.3-0.3,0.6h0.6c3.8,1.5,7.6,2.6,11.4,4.4h0.9l2.6,0.6l4.1,1.2h3.8
				l1.7,0.6l2,0.9l5,0.9l3.2,0.6l3.2,0.6h2.3l2.3,0.6h9l2.9,0.6h6.7l2.9-0.6h6.4c1.2,0,1.7-0.3,2-0.9h2.9c0.9,0.1,1.7-0.2,2.3-0.9
				c-0.3,0.3,0,0.3,0.3,0.6h1.2v-0.6c0-0.3,0-0.3,0.6-0.6c0.6-0.3,1.7-0.3,2,0.3h1.2l0.9-0.6c0.6,0,0.6,0,0.6,0.3h2l1.5-0.6l2.3-1.2
				c0.3,0.9,1.2,1.2,3.8,0.6l3.8-1.2h3.5c2.6-0.3,5.8,0,7.9-2h0.6l1.2-0.9l3.2-0.9c2.1-0.4,4-1.2,5.8-2.3l1.2-0.6h0.3l2.6-1.7
				l1.2-0.6l1.5-0.6h1.2c1.2-0.3,1.2-0.3,1.5-1.2c0.3-0.9,0-0.3-0.6-0.3h-0.3l1.2-1.5h0.6c0.9-0.3,1.5-0.6,2-0.3h0.6
				c1.3-0.4,2.3-1.4,2.6-2.6c0.9-1.2,3.2-0.6,3.8-2.3l12.5-9c3.2-0.3,4.1-3.2,6.4-5c2.3-1.7,6.7-3.2,8.7-6.4l2.6-1.2h0.3
				c1.5,0.4,3.1-0.5,3.5-2v1.2c2.3-1.2,5.2,0.9,7.6-1.5c2.3-2.3,0-7.9,2.9-11.1l2-1.5c2.2-3.8,3.7-7.9,4.4-12.2l0.6-0.6
				c0-0.9,0-2,1.2-2.6c1.1-0.8,1.3-2.4,0.6-3.5h-0.6c0.2-0.3,0.2-0.6,0-0.9c2,0,2.3-2,3.5-2.9v-4.1c0-0.2,0-0.4,0-0.6
				C292,219.3,292.1,218.6,292.1,217.9L292.1,217.9z"/>
			<path id="path9" class="st0" d="M80.7,23.3l-0.9,0.6l-1.2,0.9l1.5-0.6L80.7,23.3z M98.5,17.5h0.3l0.9-0.6h-1.2L98.5,17.5z
				 M90.9,20.4l-0.3,0.3h0.3V20.4z M30.6,72.6l-1.2,1.2H30C30.4,73.5,30.7,73,30.6,72.6z M39.3,62.4c0.4-0.5,0.7-1.1,0.9-1.7
				c-0.6,0.4-1.1,0.9-1.5,1.5c-0.3,0.3-0.3,0.6,0,0.6L39.3,62.4z M35.8,66.7v-0.6c-0.6,0-1.5,0.9-2.3,0.9v0.6
				C34.4,68.5,34.7,68.2,35.8,66.7z M219,23.1h0.3l-1.5-0.9L219,23.1z M211.8,19c1.5-0.3,2.3,1.2,3.5,1.5h0.3l-0.9-0.6l-2.9-1.5
				l-3.2-1.5l0.9,0.6L211.8,19z M191.7,11.1h-0.3l-3.5-0.6h1.5L191.7,11.1z M197.5,13.1l3.8,1.2C200.1,13.7,198.8,13.3,197.5,13.1z
				 M171.3,13.1c0.3-0.4,0.5-0.9,0.6-1.5h-1.5l-0.9,0.9l1.2,0.9L171.3,13.1z M185.3,14c0,0.1,0,0.2,0,0.3V14z M315.7,166.4h-0.9
				v-1.2h0.9c0.3,0,0.6-0.9,0.3-1.2s-0.3-2-0.9-2.3c-0.4-0.1-0.6-0.5-0.6-0.9l0.6-1.2c0-0.2,0-0.4,0-0.6h-0.6l-0.6-0.9
				c-0.3,0.9-0.6,1.7-1.2,2c0,0.2,0,0.4,0,0.6c0,0.3,0,0.6-0.3,0.6h-0.3c-0.1,0.3-0.2,0.6-0.3,0.9c-0.6,0.8-1,1.7-1.2,2.6
				c-0.1,0.4,0,0.9,0.3,1.2h0.3c-0.3,0.7-0.4,1.5-0.3,2.3v1.2c0,0.5-0.1,1-0.3,1.5h-0.3l-1.2,2v1.7c0.1,1.1-0.2,2.3-0.9,3.2h-0.6
				l-0.6-0.6c-0.5-0.7-0.6-1.6-0.3-2.3c0.3-1.6,0.4-3.3,0.3-5c0-0.3-0.3-0.6-0.3-0.6c-0.2,0.3-0.3,0.6-0.3,0.9v1.7
				c0,0.6-0.3,1.7-0.9,2c-0.6,0.3-0.3,0.6-0.3,0.9l-0.6,1.7l0.9,1.5c-0.6,0.6-1.2,0.3-1.5-0.3v2.9h0.9v1.2c-0.5,1.3-0.8,2.7-0.9,4.1
				c0,0.4,0,0.8,0,1.2c0,1.3-0.2,2.6-0.6,3.8c-0.1,0.6-0.1,1.2,0,1.7l-0.9,2c-0.2,0.7-0.5,1.4-0.9,2l-0.9,1.7l-2.6,7.9
				c0.9,2.6-1.2,4.4-2.3,6.1c0.3,2.5-0.5,5-2.3,6.7v1.2c0,0.3,0.3,0.6,0.9,0.3l1.2-0.9l0.6-1.2h0.6c0.3,0.3,0.6,0.3,1.2-0.3h0.6
				c0.5,0.4,0.6,1.2,0.3,1.7c-0.2,0.8-0.3,1.5-0.3,2.3c0,0.3,0,0.6,0.3,0.6h0.6c0.3,0.3,0.6,0,0.9-0.9l0.6-1.5h0.9
				c1.2-0.3,1.2-0.3,1.7-1.7l1.5-2.6l0.9-1.7l1.2-2.9c0-1,0.3-2.1,0.9-2.9c0.4-0.5,0.5-1.2,0.3-1.7c0-0.6,0-0.9,0.6-1.7l0.9-1.2
				l1.5-2.9c0.1-0.9,0.3-1.8,0.6-2.6c0.6-1.2,0.9-2.5,0.9-3.8c0.2-0.9,0.5-1.8,0.9-2.6v-1.5c-0.3-0.6-0.3-0.6,0-1.7s0.3-0.6,0.6-0.6
				c0.2,0.2,0.3,0.6,0.3,0.9l0.6-1.5c0.4-0.8,0.6-1.7,0.6-2.6v-0.9c0-0.3,0-0.9-0.3-0.9v1.2c-0.6,0-0.9,0.6-1.5,0.9
				c0.1-0.8,0.2-1.5,0.3-2.3l1.2-0.6c0.5-0.5,0.7-1.1,0.6-1.7c0-0.3,0-0.6,0-0.9c0.4-1.3,0.6-2.7,0.6-4.1v-0.6l0.9-2.9h0.3
				c0.3-0.2,0.4-0.6,0.3-0.9h-0.3c-0.2-0.8,0-1.7,0.6-2.3C318,167.9,317,166.9,315.7,166.4L315.7,166.4z M30.3,86
				c0.1-0.2,0.1-0.4,0-0.6l-0.6-0.6l-0.6,0.6l-0.9,1.7c0,0.9-0.9,1.7-0.9,2.6v0.6h0.3L30.3,86z M310.8,158.2h0.3
				c0.6-1.1,0.8-2.3,0.6-3.5c-0.1-0.6,0.1-1.1,0.6-1.5h0.3v-0.6l-0.6-0.6h-0.3c-0.3,0.3-0.6,0.9-0.9,0.9s-0.3,0.3-0.3,0.9v0.9
				C310.3,155.9,310.4,157.1,310.8,158.2L310.8,158.2z M42.2,258.7c-0.3,0,0,0.6,0,0.9l2.3,2.3h0.3c-0.6-0.9-0.9-1.7-0.6-2
				c-0.5,0-1-0.2-1.5-0.6L42.2,258.7z M313.4,155.6h0.3c0.1-0.6,0.1-1.2,0-1.7c-0.9,0.3-0.9,0.3-0.9,1.7S313.1,155.9,313.4,155.6
				L313.4,155.6z"/>
			<path id="path11" class="st0" d="M314.6,176.8c0.3-0.4,0.4-1,0.3-1.5c0-0.3-0.3-0.6-0.3-0.3H314v0.6
				C314,176.8,314.3,177.1,314.6,176.8L314.6,176.8z M314.9,153h-0.3v1.7C314.8,154.2,314.9,153.6,314.9,153z M53.6,266H53v0.6
				l0.6,0.6h0.6v-0.6L53.6,266z M305.8,169c0-0.3,0-0.3-0.3-0.3L305.8,169z M32.6,248.2l1.5,1.5l-1.2-1.7L32.6,248.2z"/>
			<rect id="circle13" x="34.3" y="249.8" class="st0" width="0" height="0"/>
			<path id="path15" class="st0" d="M32,83.9h-0.3v0.6v-0.6H32z M274.4,64.7l-0.6-0.9h-0.3L274.4,64.7z M20.7,90.6
				c0.2-0.1,0.3-0.4,0.3-0.6v0.6H20.7z M307.6,172.8v0.3V172.8z M51.6,265.7h-0.3c0.3,0.3,0.6,0,0.3-0.3V265.7z M52.1,267.7h0.3
				l-0.3-0.3V267.7z"/>
		</g>
	</g>
	<path d="M147.2,207.7c-2.2,5.7-5.3,10.5-9.2,14.3c-3.9,3.8-8.7,6.7-14.3,8.6c-5.6,1.9-11.7,2.8-18.4,2.8c-10,0-18.3-1.9-25.1-5.6
		c-6.7-3.8,0.7,2.7-3.7-2.5l0,0c3.6,4,12-23.5,15.7-21.2c3.7,2.2,7.8,3.4,12.3,3.4c5.3,0,9.5-1.7,12.6-5c3-3.3,4.6-8.7,4.6-16.1
		v-82.2h28.8v83.4C150.5,195.3,149.4,202,147.2,207.7z"/>
	<path d="M166,187.5v-83.4h28.8v82.2c0,7.4,1.5,12.8,4.6,16.1c3,3.3,7.2,5,12.6,5c4.5,0,8.6-1.1,12.3-3.4
		c3.7-2.2,12.1,25.3,15.7,21.2l0,0c-4.4,5.2,3.1-1.2-3.7,2.5c-6.7,3.8-15.1,5.6-25.1,5.6c-6.7,0-12.8-0.9-18.4-2.8
		c-5.6-1.9-10.4-4.7-14.3-8.6c-3.9-3.8-7-8.6-9.2-14.3C167.1,202,166,195.3,166,187.5z"/>
	<polygon points="227.6,99 81.2,99 86.3,70.4 221.6,70.4 	"/>
</g>
</svg>
